<svg xmlns="http://www.w3.org/2000/svg" viewBox="0 0 752.23 414.2"><defs><style>.cls-1{fill:#db7583;}.cls-2{fill:#e4919e;}</style></defs><g id="Capa_2" data-name="Capa 2"><g id="Capa_1-2" data-name="Capa 1"><path class="cls-1" d="M208.33,109a40.38,40.38,0,0,1,8.65-1.17,15.91,15.91,0,0,1,6,.94,8.34,8.34,0,0,1,3.81,2.89,13.14,13.14,0,0,1,2,4.71q1.72,7.62-5.8,12a14.25,14.25,0,0,1,8.49,2.26,11,11,0,0,1,4.21,6.79,14.07,14.07,0,0,1,.26,5,9.78,9.78,0,0,1-1.95,4.63,14.8,14.8,0,0,1-4.71,3.91,30,30,0,0,1-8,2.86l-21,4.78-.79-3.49,2.22-.5a10.22,10.22,0,0,0,2.17-.7,2.6,2.6,0,0,0,1-.81,1.3,1.3,0,0,0,.24-.92,9.56,9.56,0,0,0-.19-1.06l-7.63-33.5a4,4,0,0,0-.4-1.13,1.26,1.26,0,0,0-.92-.55,6.36,6.36,0,0,0-1.92,0c-.83.11-1.95.33-3.35.65l-.8-3.49Zm-1.26,21.48,7.12-1.62a16,16,0,0,0,4.31-1.59,9.41,9.41,0,0,0,2.86-2.41,7.26,7.26,0,0,0,1.37-3.08,8.71,8.71,0,0,0-.11-3.58,9.15,9.15,0,0,0-1.28-3,6.62,6.62,0,0,0-2.42-2.14,9.32,9.32,0,0,0-3.72-1,18.49,18.49,0,0,0-5.16.53l-6.69,1.53ZM212,152l7.47-1.7q6-1.38,8.35-4.35a8,8,0,0,0,1.4-7,10.18,10.18,0,0,0-1.76-4,7.13,7.13,0,0,0-3.2-2.31,12.63,12.63,0,0,0-4.8-.67,35.59,35.59,0,0,0-6.59.95l-5,1.13Z"/><path class="cls-1" d="M304.62,127.5c.54,1.54,1,2.86,1.49,4a15.38,15.38,0,0,0,1.34,2.7,4.63,4.63,0,0,0,1.41,1.49,2.68,2.68,0,0,0,1.75.33,4.41,4.41,0,0,0,1.06-.25,2.18,2.18,0,0,0,.91-.62,2.67,2.67,0,0,0,.58-1.14,5.12,5.12,0,0,0,.06-1.79l3.58-.75a8.3,8.3,0,0,1-1.34,6.14,7.62,7.62,0,0,1-5.52,2.86,7.92,7.92,0,0,1-4.43-.56,9,9,0,0,1-3.2-2.68,22.18,22.18,0,0,1-2.54-4.39c-.77-1.73-1.59-3.64-2.45-5.75a17.11,17.11,0,0,0-2.22-4c-.86-1.13-1.68-2.15-2.47-3a11.64,11.64,0,0,0-2.58-.28,29.19,29.19,0,0,0-3.29.21l-4.73.57,2,16.61a2.25,2.25,0,0,0,.34,1.07,1.25,1.25,0,0,0,.8.45,5.33,5.33,0,0,0,1.42,0c.59-.05,1.32-.12,2.18-.22l1.86-.22.43,3.55-2.12.25-2.13.25c-.73.09-1.51.18-2.34.26l-2.71.27-2.94.37c-.91.12-1.77.23-2.59.32l-2.36.3-2.3.3-.42-3.56,1.8-.21a20.31,20.31,0,0,0,2.74-.47,3.69,3.69,0,0,0,1.37-.6,1.07,1.07,0,0,0,.43-.78,5.19,5.19,0,0,0-.05-1l-4.11-34.59a4.93,4.93,0,0,0-.3-1.28,1.09,1.09,0,0,0-.87-.58,7.24,7.24,0,0,0-2,0c-.88.07-2.1.2-3.68.38l-.42-3.55,19.76-2.35a52.86,52.86,0,0,1,7.36-.39,18.06,18.06,0,0,1,6.08,1.1,10,10,0,0,1,4.33,3.18,11.45,11.45,0,0,1,2.13,5.82,10.28,10.28,0,0,1-1.78,7.49,13.89,13.89,0,0,1-7.05,4.81,20.39,20.39,0,0,1,2.21,1.5,13.06,13.06,0,0,1,2,1.94,15.43,15.43,0,0,1,1.83,2.73A28.84,28.84,0,0,1,304.62,127.5Zm-23-10.43,7.83-.93a23.34,23.34,0,0,0,4.91-1.06,8.56,8.56,0,0,0,3.18-1.87,5.91,5.91,0,0,0,1.59-2.85,11,11,0,0,0,.14-4,9.12,9.12,0,0,0-1.37-4.17,6.07,6.07,0,0,0-2.83-2.26,11.91,11.91,0,0,0-4.26-.77,42,42,0,0,0-5.64.33l-5.56.66Z"/><path class="cls-1" d="M346.85,90.31c1.13,0,2.12,0,3,0s1.69,0,2.53-.08c2.12-.07,3.9-.14,5.36-.21l3.68-.17,2.49-.13,1.86-.08.13,3.57-1.77.07a14,14,0,0,0-2.52.27,3,3,0,0,0-1.3.57,1.32,1.32,0,0,0-.46.83,8.27,8.27,0,0,0,0,1L361,130.57a7.23,7.23,0,0,0,.12,1.12,1,1,0,0,0,.49.67,3.25,3.25,0,0,0,1.31.31,23,23,0,0,0,2.57,0l1.77-.07.13,3.58-2.15.06-2.13.06-2.36.07c-.85,0-1.8,0-2.86.08-1.92.07-3.61.15-5.07.22s-2.89.14-4.31.2l-.13-3.58,1.73-.06a13.8,13.8,0,0,0,2.54-.27,3.12,3.12,0,0,0,1.28-.58,1.27,1.27,0,0,0,.46-.83,6.61,6.61,0,0,0,0-1l-1.24-34.12a8.92,8.92,0,0,0-.14-1.34,1.34,1.34,0,0,0-.54-.84,2.77,2.77,0,0,0-1.32-.41,19.44,19.44,0,0,0-2.51,0l-1.73.06Z"/><path class="cls-1" d="M402.25,89.33q2.42.19,5.34.3l6.91.26c2.28.08,4.69.14,7.25.16l-.14,3.57-2.56-.09a7.67,7.67,0,0,0-2.28.17,2.6,2.6,0,0,0-1.2.62,1.77,1.77,0,0,0-.49,1,8.61,8.61,0,0,0-.11,1.17l-1.33,35.82,16.43.61a1.49,1.49,0,0,0,1.37-.75,6.48,6.48,0,0,0,.77-2.28,31.25,31.25,0,0,0,.39-3.7c.07-1.45.15-3.11.22-5l4.15.15-.59,15.89-35.85-1.32.13-3.58,1.84.07a10.32,10.32,0,0,0,2.63-.16,2.67,2.67,0,0,0,1.36-.67,2,2,0,0,0,.53-1,12,12,0,0,0,.12-1.31l1.2-32.61c0-.19,0-.38,0-.57s0-.39,0-.58a3.06,3.06,0,0,0-.09-1,1.23,1.23,0,0,0-.57-.74,3.81,3.81,0,0,0-1.35-.51A15,15,0,0,0,404,93l-1.84-.07Z"/><path class="cls-1" d="M474,93.53q2.39.41,5.29.77l6.87.85q3.39.42,7.2.79L493,99.49l-2.55-.32a8,8,0,0,0-2.29,0,2.73,2.73,0,0,0-1.25.52,1.74,1.74,0,0,0-.56.91,8.22,8.22,0,0,0-.22,1.16l-4.42,35.57,16.32,2a1.44,1.44,0,0,0,1.42-.62,6.39,6.39,0,0,0,1-2.21,31.4,31.4,0,0,0,.71-3.64c.2-1.45.42-3.09.65-4.93l4.12.51-2,15.78-35.61-4.42.44-3.55,1.83.22a10.57,10.57,0,0,0,2.63.08,2.66,2.66,0,0,0,1.42-.56,1.89,1.89,0,0,0,.61-1,10.45,10.45,0,0,0,.24-1.3l4-32.38a5.62,5.62,0,0,1,.09-.57l.09-.58a3.55,3.55,0,0,0,0-1,1.25,1.25,0,0,0-.5-.79,4,4,0,0,0-1.31-.62,15,15,0,0,0-2.42-.46l-1.82-.23Z"/><path class="cls-1" d="M572.31,110.15c.3,2.3.59,4.39.84,6.28s.56,4,.9,6.46.69,4.89,1,7.43.68,5,1,7.45.65,4.6.92,6.53.49,3.5.65,4.72.25,1.85.26,1.93q.26,1.8.45,2.79a3.14,3.14,0,0,0,.7,1.55,3.31,3.31,0,0,0,1.52.89c.67.22,1.65.48,2.92.77l-.8,3.45c-1.32-.31-2.62-.62-3.9-.94s-2.62-.64-4-1l-2.18-.51-2.18-.5c-.75-.18-1.55-.35-2.4-.54l-2.86-.6.18-.87c.07-.39.16-.77.24-1.15l.32-1.37c1.08.25,2,.45,2.65.59a12.16,12.16,0,0,0,1.64.27,1.84,1.84,0,0,0,.89-.09.72.72,0,0,0,.36-.49,2,2,0,0,1,0-.49,5.18,5.18,0,0,0,0-.7L570.34,140l-18.41-4.26s-.21.32-.53.82-.71,1.14-1.17,1.88l-1.53,2.41c-.54.87-1.05,1.67-1.54,2.41s-.87,1.37-1.19,1.88-.47.77-.48.79a3.91,3.91,0,0,0-.64,1.19.79.79,0,0,0,.53,1,15.27,15.27,0,0,0,2.38.69l2.53.59-.77,3.34c-1.32-.3-2.62-.61-3.92-.94s-2.61-.64-4-.95l-2-.47-2-.46-2.17-.48-2.57-.54.81-3.48,2.78.57a4.71,4.71,0,0,0,1.63.08,1.91,1.91,0,0,0,1-.54,9.11,9.11,0,0,0,1-1.3l.7-1,1.69-2.48c.7-1,1.5-2.22,2.4-3.58l2.91-4.32,3.16-4.67c1.07-1.59,2.12-3.14,3.14-4.67l2.9-4.31,2.42-3.58c.7-1,1.26-1.85,1.67-2.48l.69-1,2.35-3.76Zm-18.22,22.34,15.77,3.65L567,112.42Z"/><line class="cls-1" x1="680.73" x2="680.73" y2="143"/><path class="cls-1" d="M680.73,0c1.45,11.92,2.2,23.83,2.74,35.75s.75,23.83.76,35.75-.24,23.83-.75,35.75-1.29,23.83-2.75,35.75c-1.46-11.92-2.21-23.83-2.75-35.75s-.76-23.83-.75-35.75.24-23.83.76-35.75S679.28,11.92,680.73,0Z"/><line class="cls-1" x1="752.23" y1="71.5" x2="609.23" y2="71.5"/><path class="cls-1" d="M752.23,71.5c-11.92,1.88-23.83,2.82-35.75,3.53s-23.83,1-35.75,1S656.9,75.7,645,75s-23.83-1.65-35.75-3.54C621.15,69.61,633.06,68.66,645,68s23.83-1,35.75-1,23.83.31,35.75,1S740.31,69.62,752.23,71.5Z"/><line class="cls-1" x1="712.25" y1="39.98" x2="651.7" y2="100.53"/><path class="cls-1" d="M712.25,40a150.83,150.83,0,0,1-12.92,17.35q-6.95,8.19-14.53,15.75T669.06,87.62a150.87,150.87,0,0,1-17.36,12.91,150.87,150.87,0,0,1,12.91-17.36q6.95-8.19,14.54-15.74T694.9,52.9A150.83,150.83,0,0,1,712.25,40Z"/><line class="cls-1" x1="707.64" y1="97.46" x2="647.08" y2="36.9"/><path class="cls-1" d="M707.64,97.46a153.08,153.08,0,0,1-17.36-12.93Q682.09,77.59,674.53,70T660,54.27A151.06,151.06,0,0,1,647.08,36.9a150.2,150.2,0,0,1,17.37,12.92q8.19,6.95,15.74,14.53T694.72,80.1A153.31,153.31,0,0,1,707.64,97.46Z"/><line class="cls-1" x1="64.23" y1="48" x2="64.23" y2="158"/><path class="cls-1" d="M64.23,48c1.45,9.17,2.2,18.33,2.74,27.5s.75,18.33.76,27.5-.24,18.33-.75,27.5-1.29,18.33-2.75,27.5c-1.46-9.17-2.21-18.33-2.75-27.5s-.76-18.33-.75-27.5.24-18.33.76-27.5S62.78,57.17,64.23,48Z"/><line class="cls-1" x1="119.23" y1="103" x2="9.23" y2="103"/><path class="cls-1" d="M119.23,103a221,221,0,0,1-27.5,3.53c-9.17.66-18.33,1-27.5,1s-18.33-.3-27.5-1A217.34,217.34,0,0,1,9.23,103a217.34,217.34,0,0,1,27.5-3.54q13.76-1,27.5-1c9.17,0,18.33.31,27.5,1A221,221,0,0,1,119.23,103Z"/><line class="cls-1" x1="88.48" y1="78.75" x2="41.9" y2="125.33"/><path class="cls-1" d="M88.48,78.75a90.81,90.81,0,0,1-9.43,13.86,156.8,156.8,0,0,1-11,12.26,152.79,152.79,0,0,1-12.24,11,90.62,90.62,0,0,1-13.87,9.42,90.62,90.62,0,0,1,9.42-13.87,154.67,154.67,0,0,1,11-12.25,156.88,156.88,0,0,1,12.26-11A90.81,90.81,0,0,1,88.48,78.75Z"/><line class="cls-1" x1="84.93" y1="122.97" x2="38.35" y2="76.39"/><path class="cls-1" d="M84.93,123a90.81,90.81,0,0,1-13.86-9.43,156.8,156.8,0,0,1-12.26-11,152.79,152.79,0,0,1-11-12.24,90.62,90.62,0,0,1-9.42-13.87,90.62,90.62,0,0,1,13.87,9.42,154.67,154.67,0,0,1,12.25,11,156.88,156.88,0,0,1,11,12.26A90.81,90.81,0,0,1,84.93,123Z"/><path class="cls-2" d="M25.68,307.75V238.47c0-4.78-8.51-7.91-10.9-8.51v-1.2H93.32c25.68,0,38.52,12.85,38.52,28.67a28.59,28.59,0,0,1-24.19,28.22c23.74,6.42,37.18,29.71,37.18,55,0,49.42-42.11,73.6-80.48,73.6C19.11,414.2.15,384.49,0,355.53-.15,331.79,10.75,316.11,25.68,307.75Zm37,102.12c35.39,0,55.54-33.59,55.54-65.84,0-29.41-11-57.63-58.23-57.63H52.26v10.9c-9.86,0-17.77,4.18-21.35,7.76A63.36,63.36,0,0,1,56,300c67,0,61.67,81.53,11.95,81.53V380c26.72-3.88,29.26-63.6-15.68-67v59.28a8.91,8.91,0,0,0,4.93,8.36v1.19H20.75v-1.19a9.14,9.14,0,0,0,4.93-8.36V318.5c-11.79,6.57-20.45,18.81-20.6,37C4.93,382.4,21.65,409.87,62.71,409.87ZM52.26,282.22H81.08c32,0,32-49.27,0-49.27H52.26Z"/><path class="cls-2" d="M234.41,257c35.38,0,55.24,21.21,55.24,53.75s-19.86,53.46-55.24,53.46-55.24-20.91-55.24-53.46S199,257,234.41,257Zm-28.52,53c0,25.38,9.26,50.91,28.52,50.91,18.66,0,28.52-26.13,28.52-50.76,0-25.68-9.11-49.87-28.52-49.87C215.6,260.27,205.89,285.05,205.89,310Z"/><path class="cls-2" d="M329.22,361.65a9.36,9.36,0,0,0,4.92-8.36V267.88a9.36,9.36,0,0,0-4.92-8.36v-1.19h18.21l60.92,64.2V267.88a9.19,9.19,0,0,0-4.93-8.36v-1.19h13.89v1.19a9.1,9.1,0,0,0-4.93,8.36v96.9h-4l-70.17-73.9v62.41a9,9,0,0,0,4.92,8.36v1.19H329.22Z"/><path class="cls-2" d="M456.13,258.33h36.43v1.19a9.1,9.1,0,0,0-4.93,8.36v85.41a9.1,9.1,0,0,0,4.93,8.36v1.19H456.13v-1.19a9.36,9.36,0,0,0,4.92-8.36V267.88a9.36,9.36,0,0,0-4.92-8.36Z"/><path class="cls-2" d="M535.56,258.33h78.83l2.69,23.14h-1.2c-.74-2.39-6.57-19-11.19-19H588.26v90.78a9.1,9.1,0,0,0,4.93,8.36v1.19H556.76v-1.19a9.36,9.36,0,0,0,4.93-8.36V262.51H545.26c-4.63,0-10.45,16.57-11.2,19h-1.19Z"/><path class="cls-2" d="M640.82,361.65c2.68-1,5.52-4,7.46-8.36l42.55-98h6.87l40.46,98a19.46,19.46,0,0,0,7.77,8.36v1.19H706.06v-1.19c2.09-1,4.93-4.78,3.44-8.36l-8.66-21.21H662.17l-9.26,21.21c-1.94,4.48,0,7.31,2.09,8.36v1.19H640.82ZM664,327.91h35.09l-17-41.36Z"/></g></g></svg>