<svg xmlns="http://www.w3.org/2000/svg" viewBox="0 0 184.49 185.58"><defs><style>.cls-1,.cls-3{fill:#ee7686;}.cls-2{fill:#fff;}.cls-3{font-size:18px;font-family:Mont-SemiBold, Mont;font-weight:600;}</style></defs><g id="Capa_2" data-name="Capa 2"><g id="Capa_1-2" data-name="Capa 1"><circle class="cls-1" cx="100.39" cy="113.98" r="62.34" transform="translate(-51.19 104.37) rotate(-45)"/><path class="cls-2" d="M79.12,107.73V76.21c0-2.18-3.87-3.6-5-3.87v-.55H109.9c11.68,0,17.53,5.84,17.53,13a13,13,0,0,1-11,12.84c10.8,2.93,16.92,13.52,16.92,25,0,22.48-19.16,33.49-36.62,33.49-20.59,0-29.21-13.52-29.28-26.7-.07-10.8,4.89-17.94,11.68-21.74M96,154.2c16.1,0,25.27-15.29,25.27-30,0-13.39-5-26.23-26.49-26.23H91.21v5a14.36,14.36,0,0,0-9.71,3.54,28.67,28.67,0,0,1,11.41-2.31c30.51,0,28.06,37.09,5.44,37.09v-.68c12.16-1.77,13.31-28.94-7.14-30.5v27a4.05,4.05,0,0,0,2.25,3.8v.54H76.88v-.54a4.17,4.17,0,0,0,2.24-3.8V112.62c-5.36,3-9.3,8.56-9.37,16.85C69.68,141.7,77.29,154.2,96,154.2M91.21,96.11h13.12c14.53,0,14.53-22.42,0-22.42H91.21Z"/><text class="cls-3" transform="translate(30.06 100.7) rotate(-77.46)"> </text><text class="cls-3" transform="translate(32.46 91.19) rotate(-68.22)">-</text><text class="cls-3" transform="translate(37.97 78.95) rotate(-58.97)"> </text><text class="cls-3" transform="matrix(0.67, -0.74, 0.74, 0.67, 43.07, 70.67)">A</text><text class="cls-3" transform="translate(55.71 58.01) rotate(-36.79)"> </text><text class="cls-3" transform="matrix(0.9, -0.44, 0.44, 0.9, 63.61, 52.3)">B</text><text class="cls-3" transform="matrix(0.97, -0.22, 0.22, 0.97, 78.83, 45.46)">R</text><text class="cls-3" transform="translate(95.44 42.48) rotate(-1.89)">I</text><text class="cls-3" transform="translate(105.95 42.42) rotate(8.16)">L</text><text class="cls-3" transform="translate(120.2 45) rotate(19.7)">L</text><text class="cls-3" transform="translate(133.61 50.2) rotate(32.49)">A</text><text class="cls-3" transform="translate(148.23 60.31) rotate(46.35)">R</text><text class="cls-3" transform="translate(159.28 73.09) rotate(57.09)"> </text><text class="cls-3" transform="translate(164.34 81.47) rotate(66)">-</text></g></g></svg>