<svg xmlns="http://www.w3.org/2000/svg" viewBox="0 0 224.59 273.24"><defs><style>.cls-1,.cls-2{fill:#fff;}.cls-2{font-size:27px;font-family:TTFirsNeue-Regular, TT Firs Neue;}</style></defs><g id="Capa_2" data-name="Capa 2"><g id="Capa_1-2" data-name="Capa 1"><path class="cls-1" d="M78.89,108.43V58.92c0-3.42-6.08-5.66-7.78-6.08V52h56.12c18.35,0,27.53,9.18,27.53,20.49a20.43,20.43,0,0,1-17.28,20.17c17,4.59,26.57,21.23,26.57,39.27,0,35.31-30.09,52.6-57.52,52.6-32.33,0-45.88-21.23-46-41.94-.1-17,7.69-28.16,18.35-34.14m26.47,73c25.29,0,39.69-24,39.69-47.06,0-21-7.89-41.19-41.61-41.19H97.89V101c-7,0-12.7,3-15.26,5.55a45.15,45.15,0,0,1,17.93-3.63c47.91,0,44.07,58.26,8.53,58.26v-1.07c19.11-2.77,20.92-45.45-11.2-47.91v42.37a6.35,6.35,0,0,0,3.52,6v.86h-26v-.86a6.52,6.52,0,0,0,3.52-6V116.11c-8.42,4.7-14.61,13.45-14.72,26.46-.11,19.21,11.85,38.85,41.19,38.85M97.89,90.18h20.59c22.84,0,22.84-35.21,0-35.21H97.89Z"/><text class="cls-2" transform="matrix(0.69, -0.73, 0.73, 0.69, 37.4, 58.78)">T</text><text class="cls-2" transform="translate(54 42.26) rotate(-31.89)">U</text><text class="cls-2" transform="translate(77.23 29.52) rotate(-19.29)"> </text><text class="cls-2" transform="translate(91.82 24.86) rotate(-7.92)">L</text><text class="cls-2" transform="matrix(0.99, 0.13, -0.13, 0.99, 113.75, 22.32)">O</text><text class="cls-2" transform="matrix(0.9, 0.43, -0.43, 0.9, 142.78, 27.24)">O</text><text class="cls-2" transform="matrix(0.75, 0.66, -0.66, 0.75, 168.84, 41.03)">K</text><text class="cls-2" transform="matrix(0.62, 0.79, -0.79, 0.62, 18.93, 181.13)">T</text><text class="cls-2" transform="matrix(0.8, 0.6, -0.6, 0.8, 36.96, 202.07)">U</text><text class="cls-2" transform="translate(62 218.7) rotate(24.6)"> </text><text class="cls-2" transform="matrix(0.97, 0.23, -0.23, 0.97, 79.11, 225.81)">E</text><text class="cls-2" transform="matrix(1, -0.03, 0.03, 1, 106.78, 230.73)">S</text><text class="cls-2" transform="matrix(0.96, -0.28, 0.28, 0.96, 135.55, 228.36)">T</text><text class="cls-2" transform="translate(160.87 219.49) rotate(-27.34)">I</text><text class="cls-2" transform="translate(176.24 210.79) rotate(-38.31)">L</text><text class="cls-2" transform="translate(196.3 193.55) rotate(-53.79)">O</text></g></g></svg>